<svg width="30" height="30" viewBox="0 0 30 30" fill="none" xmlns="http://www.w3.org/2000/svg">
<path d="M15.4891 26.9215C15.3575 26.7519 15.2258 26.8537 15.2258 26.7519C14.4359 26.9555 12.9549 26.4126 12.3295 26.4805C12.4612 26.2769 12.1321 26.3108 12.1321 26.1751C12.0004 26.3787 11.8688 26.1751 11.6713 26.243C11.4738 25.7341 10.6839 26.1073 10.5852 25.4626C10.1244 25.4626 9.95985 25.1912 9.49908 24.9198C9.53199 24.8859 9.5649 24.8859 9.59782 24.8519C9.36743 24.818 9.36743 24.6823 9.16995 24.6823L9.23578 24.5466C8.87374 24.4787 8.74209 23.9019 8.2155 23.6984C8.05093 23.6644 7.6889 23.0877 7.49142 22.952C7.39269 22.8841 7.22813 22.8841 7.45851 22.8502C7.4256 22.8162 7.4256 22.7484 7.45851 22.7145C7.22813 22.6466 7.19521 22.443 6.899 22.3412C6.86609 22.2395 6.96483 22.1716 6.899 22.1038C6.83318 22.0698 6.73444 22.1377 6.66862 22.1038C6.6357 22.7145 7.29395 22.7823 7.49142 23.2912C7.4256 23.2234 7.32686 23.0198 7.26104 23.1555C7.22813 23.2573 7.52434 23.6305 7.52434 23.4269C7.4256 23.4948 7.39269 23.3252 7.45851 23.2912C7.55725 23.4609 7.75472 23.4269 7.75472 23.5627C7.65599 23.6644 7.52434 23.4609 7.55725 23.6305C7.85346 23.8002 7.82055 23.9698 7.98511 24.2073C7.85346 24.0377 7.82055 24.343 7.6889 24.2073C7.65599 23.6984 7.09648 23.8002 7.09648 23.2912C7.03065 23.1216 6.96483 23.2573 6.86609 23.1894C6.99774 23.0537 6.47114 22.5787 6.47114 22.7484C6.30658 22.5448 6.40532 22.477 6.3724 22.3412C6.24075 22.3073 6.33949 22.477 6.24075 22.3752C6.3724 22.1377 6.07619 21.8323 5.87872 21.5948L6.01037 21.527C5.77998 21.3913 5.74707 21.1198 5.58251 20.8145C5.38503 21.1198 5.97746 21.7984 5.87872 21.9341C5.87872 21.968 6.10911 22.2395 6.17493 22.3752C6.43823 22.8502 6.6357 23.4269 6.99774 23.6984C6.93191 23.6644 6.96483 23.4609 7.06356 23.5627C7.06356 23.6644 6.99774 23.7662 6.99774 23.868C7.19521 24.0716 7.35978 24.2412 7.55725 24.4448C7.12939 24.1734 6.70153 23.9019 6.40532 23.4948C6.56988 23.4609 6.73444 23.7662 6.86609 23.7323C6.53697 23.4609 6.6357 23.3591 6.50405 23.0198C6.3724 22.918 6.53697 23.1555 6.40532 23.1894C5.97746 22.7823 5.64833 22.5448 5.45086 22.1716C5.48377 22.1377 5.51668 22.1038 5.51668 22.0359C5.48377 22.002 5.48377 22.002 5.45086 21.968C5.64833 22.1716 5.71416 22.3412 5.94454 22.3752C5.84581 22.2734 5.94454 22.2395 5.81289 22.1377C5.74707 22.002 5.64833 22.2055 5.58251 22.1038C5.64833 22.002 5.58251 21.8663 5.58251 21.7645C5.51668 21.7645 5.45086 21.7645 5.41795 21.6627C5.35212 21.6288 5.31921 21.6627 5.2863 21.7305C5.25338 21.6966 5.25338 21.6288 5.22047 21.5948V21.5609C5.18756 21.527 5.15465 21.4591 5.12174 21.4252C4.85844 20.7127 4.69387 19.7627 4.33184 19.152C4.43058 18.7449 4.26601 17.9306 4.16728 17.727C4.26601 17.5574 4.20019 16.777 4.13436 16.6413C3.9698 16.7092 4.16728 17.0824 4.00272 17.1842C3.83815 16.4378 4.10145 15.5896 4.03563 14.911C4.10145 14.911 4.16728 14.911 4.16728 14.8771C4.06854 14.7753 4.2331 14.5717 4.20019 14.3342C4.33184 14.0289 3.90398 14.7753 3.90398 15.0806C3.87107 15.1485 3.73942 15.0806 3.77233 15.2503C3.77233 15.4878 3.83815 15.9628 3.7065 16.302C3.64068 16.302 3.64068 16.2342 3.57485 16.2681C3.54194 16.4378 3.50903 16.6413 3.47612 16.811C3.4432 16.7431 3.41029 16.6413 3.41029 16.6074C3.24573 15.7592 3.41029 14.7753 3.34447 14.0628C3.47612 14.0628 3.47612 13.8592 3.57485 13.7914C3.54194 14.0628 3.47612 14.4021 3.64068 14.4699C3.77233 13.1467 4.03563 11.6878 4.62805 10.2628C5.05591 9.21107 5.68125 8.1593 6.43823 7.3111C6.50405 7.41288 6.40532 7.65038 6.43823 7.75216C7.09648 7.03967 7.52434 6.19147 8.24841 5.71648C8.28132 5.88612 7.9522 6.02183 7.9522 6.15754C8.24841 5.85219 8.34715 5.95397 8.67627 5.85219C8.77501 5.71647 8.54462 5.85219 8.51171 5.71648C8.70918 5.58076 8.84083 5.41112 8.97248 5.30934C8.97248 5.34327 8.93957 5.34327 8.93957 5.37719C9.3016 5.27541 9.33452 5.07184 9.59782 5.00398C9.5649 4.97006 9.49908 4.93613 9.40034 4.97006C9.46617 4.93613 9.5649 4.86827 9.66364 4.83434C9.63073 4.83434 9.63073 4.86827 9.59782 4.86827C9.79529 4.76649 9.63073 4.9022 9.63073 4.97006C9.66364 4.97006 9.69655 4.93613 9.69655 4.93613C9.49908 5.07184 9.36743 5.1397 9.3016 5.37719C9.40034 5.30934 9.43325 5.37719 9.5649 5.27541C9.69655 5.20755 9.53199 5.10577 9.63073 5.03791C9.72947 5.10577 9.86111 5.07184 9.95985 5.07184C9.95985 5.00398 9.99276 4.93613 10.0586 4.9022C10.0915 4.83434 10.0586 4.80042 10.0257 4.80042C10.0586 4.76649 10.0915 4.76649 10.1573 4.73256C10.1573 4.73256 10.1902 4.73256 10.1902 4.76649C10.7497 4.49506 11.3751 4.25757 11.9675 4.054C12.3295 4.02007 12.7903 4.02007 12.9878 3.78257C12.922 3.78257 12.8561 3.8165 12.8232 3.78257C12.8561 3.78257 12.922 3.74864 12.9549 3.74864C13.0207 3.8165 13.1194 3.74864 13.0207 3.88436C13.0536 3.88436 13.0536 3.88436 13.0865 3.85043C13.0865 3.88436 13.0865 3.88436 13.1194 3.91828C13.1524 3.91828 13.1853 3.88436 13.2182 3.8165C13.2511 3.8165 13.284 3.8165 13.3169 3.78257L13.284 3.8165C13.5473 3.74864 13.7777 3.78257 14.1397 3.71472C14.1397 3.68079 14.1397 3.64686 14.1397 3.61293C14.2055 3.61293 14.2385 3.579 14.3043 3.579V3.61293C14.4359 3.54508 14.5676 3.68079 14.5676 3.61293C14.6005 3.61293 14.6005 3.61293 14.6334 3.61293C14.6334 3.68079 14.6005 3.71472 14.6005 3.74864C14.7651 3.74864 14.8638 3.74864 14.9296 3.64686C14.8967 3.61293 14.8638 3.61293 14.8309 3.61293C14.8967 3.61293 14.9625 3.579 15.0284 3.54508C15.1271 3.579 15.16 3.61293 15.16 3.74864C15.3246 3.44329 15.8512 3.8165 16.0816 3.74864C16.1803 3.74864 16.1474 3.61293 16.2132 3.54508C16.2461 3.54508 16.279 3.54508 16.3119 3.54508C16.4765 3.68079 16.7069 3.8165 17.0031 3.85043C16.7398 3.78257 17.036 3.74864 17.0689 3.71472C17.0031 3.71472 17.0031 3.68079 17.0031 3.64686C17.1018 3.64686 17.2006 3.68079 17.2993 3.68079C17.2993 3.74864 17.3322 3.78257 17.398 3.78257C17.4639 3.78257 17.4639 3.74864 17.4639 3.68079C17.5626 3.68079 17.6284 3.68079 17.7272 3.71472C17.6943 3.85043 17.8917 3.88436 17.9576 3.98614C17.6943 3.91828 17.398 3.8165 17.2993 3.98614C18.3525 4.22364 19.5044 4.56292 20.6235 5.1397C20.6235 5.1397 20.6235 5.1397 20.6235 5.17362H20.6564C20.8538 5.27541 21.0513 5.37719 21.2488 5.47898C21.3804 5.54683 21.4792 5.61469 21.6108 5.71648C21.6108 5.7504 21.6108 5.78433 21.6767 5.78433H21.7096C21.8412 5.88612 21.9729 5.95397 22.1045 6.05576C22.2362 6.25932 22.3678 6.53075 22.5982 6.46289C23.0919 7.24324 23.6185 7.54859 24.0463 8.36287C24.0793 8.22715 24.178 8.66822 24.3426 8.70215C24.0793 8.66822 24.5071 8.87179 24.2438 8.83786C24.4742 9.07536 24.54 9.17714 24.5729 9.44857C24.5071 9.31285 24.4742 9.27893 24.4413 9.41464C24.4084 9.61821 24.6717 9.38071 24.7704 9.58428C24.5729 9.58428 24.6388 9.71999 24.6717 9.88963C24.7704 9.78785 24.7375 9.68606 24.8362 9.71999C24.9679 9.8557 24.7704 9.88963 24.8033 9.99142C24.9021 9.8557 24.935 9.92356 25.0666 9.99142C24.9021 10.0253 25.1654 10.2628 24.9679 10.1611C25.0995 10.3307 25.1324 10.4325 25.0666 10.6021C24.935 10.3986 25.0337 10.2628 24.8362 10.2968C25.2312 10.6361 25.0337 11.4164 25.4945 11.4843C25.1983 11.5521 25.4945 11.6878 25.3299 11.7217C25.5274 11.7896 25.4287 12.061 25.659 12.1289C25.6261 12.2985 25.5603 12.4003 25.5274 12.57C25.6261 12.7057 25.659 12.9771 25.8236 13.011C25.7249 13.1128 25.7907 13.3842 25.692 13.486C25.8236 13.4182 25.8894 13.4182 25.9882 13.5539C25.8236 13.6896 25.9553 13.8253 25.8565 13.8592C26.1527 14.6396 25.7907 16.2342 25.9553 16.8449C25.7578 16.7431 25.8236 17.0824 25.692 17.0824C25.9223 17.1842 25.7249 17.3538 25.8236 17.5235C25.3628 17.7949 25.8236 18.5413 25.1983 18.7109C25.2641 19.1859 25.0008 19.3895 24.8033 19.8984C24.7704 19.8645 24.7704 19.8306 24.7375 19.7966C24.7046 20.0341 24.5729 20.0681 24.6388 20.2716L24.5071 20.2038C24.5071 20.577 23.9476 20.7806 23.816 21.3573C23.783 21.527 23.2894 21.968 23.1577 22.2055C23.0919 22.3073 23.1248 22.477 23.059 22.2395C23.0261 22.2734 22.9602 22.2734 22.9273 22.2734C22.8944 22.5109 22.6969 22.5787 22.6311 22.8841C22.5653 22.918 22.4665 22.8162 22.4007 22.918C22.4007 22.9859 22.4665 23.0877 22.4336 23.1555C23.0261 23.1216 23.0261 22.4091 23.4868 22.1716C23.4539 22.2734 23.2564 22.3752 23.3881 22.443C23.4868 22.443 23.783 22.1038 23.6185 22.1377C23.7172 22.2055 23.5197 22.2734 23.4868 22.2395C23.6514 22.1038 23.5856 21.9341 23.7172 21.9002C23.816 21.968 23.6185 22.1377 23.816 22.1038C23.9476 21.7984 24.1122 21.7645 24.3096 21.5948C24.178 21.7305 24.4742 21.7645 24.3426 21.9002C23.8489 22.002 24.0134 22.5787 23.5197 22.6466C23.3881 22.7484 23.4868 22.7823 23.4539 22.8841C23.2894 22.7823 22.9273 23.3591 23.059 23.3252C22.8944 23.4948 22.7957 23.4269 22.664 23.4609C22.6311 23.5966 22.7957 23.4948 22.7298 23.5966C22.4995 23.4948 22.2033 23.8341 22.0058 24.0716L21.907 23.9698C21.8083 24.2412 21.545 24.2752 21.2488 24.4787C21.5779 24.6484 22.1374 23.9359 22.302 24.0377C22.3349 24.0377 22.5982 23.7662 22.6969 23.6644C23.1248 23.3252 23.6514 23.0537 23.8489 22.6805C23.816 22.7484 23.6185 22.7484 23.7172 22.6466C23.816 22.6127 23.9147 22.6805 24.0134 22.6805C24.54 21.9341 25.1983 21.3234 25.692 20.4413C25.7249 20.4073 25.7578 20.3395 25.7907 20.2716C25.7249 20.4752 25.6261 20.6448 25.5603 20.8484C25.0337 21.2216 24.8362 22.3073 24.2109 22.477C24.2438 22.8502 23.9147 22.952 23.7501 23.393C23.6514 23.5287 23.5856 23.2912 23.4868 23.4609C23.5856 23.9359 22.664 23.9019 22.6969 24.343C22.6311 24.3769 22.5324 24.4109 22.4665 24.4787H22.4336C22.4007 24.5126 22.4007 24.5126 22.3678 24.5466C22.2033 24.6484 22.0716 24.7501 21.9399 24.8519C21.4792 25.1234 20.8538 25.3269 20.3602 25.5983V25.5644C20.2285 25.6323 20.0639 25.5983 20.0969 25.7341C19.9981 25.8019 19.8994 25.8698 19.8006 25.9376C19.7677 25.9376 19.7677 25.9376 19.7348 25.9376C19.7348 25.9376 19.7019 25.9037 19.669 25.9037C19.6032 25.9037 19.6032 25.9037 19.5703 25.9376C19.1424 25.9716 18.5829 26.1751 18.4183 26.3108C18.2538 26.2091 17.4968 26.3787 17.3651 26.4466C17.431 26.5483 17.6284 26.4466 17.793 26.4466C17.6943 26.4805 17.5955 26.5144 17.5626 26.5823C17.5297 26.5823 17.5297 26.5823 17.4968 26.5823C17.4639 26.4805 17.3651 26.5823 17.3322 26.5483H17.3651C17.3322 26.4126 17.2335 26.3448 17.0689 26.3787C17.0689 26.4465 17.0689 26.4805 17.036 26.5483C17.1018 26.5483 17.2993 26.4465 17.2993 26.5483C17.2664 26.5483 17.2664 26.5823 17.2993 26.5823C17.2335 26.6501 17.1347 26.6501 17.0689 26.684C16.9373 26.684 16.7727 26.684 16.6411 26.684C16.6081 26.6501 16.5752 26.6501 16.5094 26.6162C16.4765 26.6501 16.4107 26.6501 16.3778 26.684C16.1803 26.684 15.9499 26.718 15.7853 26.7519C15.7853 26.684 15.7853 26.6162 15.7195 26.6162C15.6208 26.7519 15.4233 26.5823 15.1929 26.6501C14.9625 26.5823 15.3246 26.7519 15.6537 26.8198C15.6208 26.8537 15.5879 26.8876 15.4891 26.9215ZM10.8814 27.3965C10.4206 26.9555 9.46617 26.7519 9.3016 26.4126C9.03831 26.3787 8.64336 25.8698 8.31423 25.8019C8.4788 25.8019 8.34715 25.7001 8.31423 25.6323C8.24841 25.7001 8.18258 25.7341 8.11676 25.7341C8.11676 25.4626 7.85346 25.293 7.62307 25.1234C7.78764 25.2251 7.91929 25.293 8.11676 25.3269C8.11676 25.2591 8.11676 25.1912 8.18258 25.1912C8.41297 25.4287 8.67627 25.6662 8.97248 25.9037C9.36743 26.2769 11.408 27.2269 11.77 27.3965C11.77 27.3965 11.7042 27.5322 11.7371 27.5322C11.9017 27.634 12.0333 27.4305 12.0662 27.668C11.5396 27.7358 11.3422 27.3626 10.8814 27.3965ZM26.054 19.5252V19.5591C26.0211 19.5591 26.054 19.5252 26.054 19.5252ZM12.7574 3.8165C12.7245 3.85043 12.6916 3.85043 12.6916 3.85043C12.6916 3.8165 12.7245 3.8165 12.7574 3.8165ZM9.95985 4.69863C9.99276 4.6647 9.99276 4.6647 10.0257 4.6647C9.99276 4.6647 9.95985 4.69863 9.95985 4.69863ZM15.2258 3.579C15.16 3.579 15.1271 3.579 15.0942 3.54508C15.1271 3.54508 15.16 3.54508 15.1929 3.54508H15.2258C15.2258 3.54508 15.2258 3.54508 15.2258 3.579ZM15.8183 3.64686C15.7853 3.61293 15.6866 3.579 15.5879 3.579C15.5879 3.54508 15.6208 3.51115 15.6208 3.51115C15.6537 3.51115 15.6866 3.51115 15.7195 3.51115C15.7195 3.51115 15.7524 3.51115 15.7524 3.54508C15.7524 3.54508 15.7524 3.54508 15.7524 3.51115C15.7853 3.51115 15.7853 3.51115 15.8183 3.51115C15.8512 3.579 15.8841 3.61293 15.8183 3.64686ZM16.9044 3.74864C16.7398 3.78257 16.6411 3.71472 16.4765 3.61293C16.5752 3.61293 16.7069 3.64686 16.8056 3.68079C16.8385 3.68079 16.8714 3.71472 16.9044 3.74864ZM28.6212 8.56644C28.5553 8.60036 28.5224 8.60036 28.4566 8.46465C27.93 7.3111 26.9755 5.64862 25.5932 4.25757C24.2438 2.83259 22.4336 1.67903 20.788 1.06832C20.8868 1.10225 21.0184 1.17011 20.9526 1.23796C19.5044 0.661186 18.1221 0.321905 16.8056 0.186193C13.2511 -0.390585 9.53199 0.389762 6.66862 2.28974C6.70153 2.35759 6.70153 2.39152 6.60279 2.45938C5.5496 3.13794 4.06854 4.32542 2.88369 5.88612C1.69885 7.44681 0.777304 9.41464 0.382355 11.1789C0.415268 11.0771 0.44818 10.9075 0.514005 10.9753C-0.341717 14.4699 -0.11133 17.4556 1.07351 20.0341C1.13934 19.9663 0.908953 19.627 1.10643 19.6609C1.23808 20.0341 1.40264 20.4413 1.60011 20.8145C1.8305 21.3573 2.0938 22.0698 2.45583 22.2395C1.53429 20.3734 0.908953 18.2359 0.843128 16.336C0.974778 16.6074 0.941865 17.1842 1.13934 17.4217C1.20516 16.1324 0.908953 14.4021 1.33681 13.1807C1.23808 13.8253 1.17225 14.7074 1.23808 15.5896C1.23808 16.2342 1.53429 18.0324 1.73176 18.202C1.69885 18.1681 1.69885 17.9984 1.73176 17.9984C1.8305 18.202 1.60011 18.3038 1.76467 18.3377C1.76467 18.2699 1.79759 18.2699 1.8305 18.2699C2.15962 19.0163 2.58748 20.1698 2.91661 20.7466C3.31156 21.493 3.83815 22.1716 4.43058 22.7823C4.43058 22.8162 4.46349 22.8162 4.46349 22.8502C4.52931 23.0198 4.7597 23.2234 4.82552 23.3591C4.85844 23.4269 4.79261 23.5287 4.82552 23.5966C5.31921 24.5466 6.04328 25.4966 6.93191 26.243C7.49142 26.9215 8.38006 27.634 9.46617 28.2447C10.5194 28.8215 11.7371 29.2965 12.8561 29.5679C13.646 29.7715 14.6005 29.8054 15.1929 29.9411C15.9828 30.1108 17.3651 29.8733 18.0563 29.7376C22.2032 29.0929 26.3173 26.1751 28.3908 21.968C30.5301 17.727 30.4643 12.536 28.6212 8.56644Z" fill="#11414B"/>
</svg>
